<mxfile host="app.diagrams.net" agent="Mozilla/5.0 (X11; Linux x86_64) AppleWebKit/537.36 (KHTML, like Gecko) Chrome/127.0.0.0 Safari/537.36" version="24.7.7">
  <diagram name="Page-1" id="f--vMnmFEGBGMo8ZGAFD">
    <mxGraphModel dx="937" dy="516" grid="1" gridSize="10" guides="1" tooltips="1" connect="1" arrows="1" fold="1" page="1" pageScale="1" pageWidth="827" pageHeight="1169" math="0" shadow="0">
      <root>
        <mxCell id="0" />
        <mxCell id="1" parent="0" />
        <mxCell id="bqHvNz_Pqj1NmZ8sPgHQ-25" style="edgeStyle=orthogonalEdgeStyle;rounded=0;orthogonalLoop=1;jettySize=auto;html=1;exitX=0.5;exitY=0;exitDx=0;exitDy=0;" edge="1" parent="1" source="bqHvNz_Pqj1NmZ8sPgHQ-1">
          <mxGeometry relative="1" as="geometry">
            <mxPoint x="220" y="1000" as="targetPoint" />
          </mxGeometry>
        </mxCell>
        <mxCell id="bqHvNz_Pqj1NmZ8sPgHQ-1" value="attention" style="rounded=1;whiteSpace=wrap;html=1;" vertex="1" parent="1">
          <mxGeometry x="180" y="1040" width="80" height="20" as="geometry" />
        </mxCell>
        <mxCell id="bqHvNz_Pqj1NmZ8sPgHQ-2" value="" style="endArrow=classic;html=1;rounded=0;" edge="1" parent="1">
          <mxGeometry width="50" height="50" relative="1" as="geometry">
            <mxPoint x="220" y="1120" as="sourcePoint" />
            <mxPoint x="220" y="1080" as="targetPoint" />
          </mxGeometry>
        </mxCell>
        <mxCell id="bqHvNz_Pqj1NmZ8sPgHQ-6" style="edgeStyle=orthogonalEdgeStyle;rounded=0;orthogonalLoop=1;jettySize=auto;html=1;" edge="1" parent="1">
          <mxGeometry relative="1" as="geometry">
            <mxPoint x="220" y="1020" as="targetPoint" />
            <mxPoint x="220" y="1100" as="sourcePoint" />
            <Array as="points">
              <mxPoint x="300" y="1100" />
              <mxPoint x="300" y="1020" />
              <mxPoint x="220" y="1020" />
            </Array>
          </mxGeometry>
        </mxCell>
        <mxCell id="bqHvNz_Pqj1NmZ8sPgHQ-5" value="x" style="text;strokeColor=none;align=center;fillColor=none;html=1;verticalAlign=middle;whiteSpace=wrap;rounded=0;" vertex="1" parent="1">
          <mxGeometry x="190" y="1110" width="60" height="30" as="geometry" />
        </mxCell>
        <mxCell id="bqHvNz_Pqj1NmZ8sPgHQ-9" value="feed_forward" style="rounded=1;whiteSpace=wrap;html=1;" vertex="1" parent="1">
          <mxGeometry x="180" y="910" width="80" height="20" as="geometry" />
        </mxCell>
        <mxCell id="bqHvNz_Pqj1NmZ8sPgHQ-10" value="h" style="endArrow=classic;html=1;rounded=0;" edge="1" parent="1">
          <mxGeometry x="-1" y="-10" width="50" height="50" relative="1" as="geometry">
            <mxPoint x="220" y="980" as="sourcePoint" />
            <mxPoint x="220" y="950" as="targetPoint" />
            <mxPoint x="-10" y="10" as="offset" />
          </mxGeometry>
        </mxCell>
        <mxCell id="bqHvNz_Pqj1NmZ8sPgHQ-11" style="edgeStyle=orthogonalEdgeStyle;rounded=0;orthogonalLoop=1;jettySize=auto;html=1;" edge="1" parent="1">
          <mxGeometry relative="1" as="geometry">
            <mxPoint x="220" y="890" as="targetPoint" />
            <mxPoint x="220" y="970" as="sourcePoint" />
            <Array as="points">
              <mxPoint x="230" y="970" />
              <mxPoint x="300" y="970" />
              <mxPoint x="300" y="890" />
            </Array>
          </mxGeometry>
        </mxCell>
        <mxCell id="bqHvNz_Pqj1NmZ8sPgHQ-12" value="out" style="endArrow=classic;html=1;rounded=0;" edge="1" parent="1">
          <mxGeometry x="1" y="10" width="50" height="50" relative="1" as="geometry">
            <mxPoint x="219.71" y="910" as="sourcePoint" />
            <mxPoint x="220" y="870" as="targetPoint" />
            <mxPoint x="10" y="-10" as="offset" />
          </mxGeometry>
        </mxCell>
        <mxCell id="bqHvNz_Pqj1NmZ8sPgHQ-14" value="norm" style="rounded=1;whiteSpace=wrap;html=1;" vertex="1" parent="1">
          <mxGeometry x="180" y="1060" width="80" height="20" as="geometry" />
        </mxCell>
        <mxCell id="bqHvNz_Pqj1NmZ8sPgHQ-15" value="norm" style="rounded=1;whiteSpace=wrap;html=1;" vertex="1" parent="1">
          <mxGeometry x="180" y="930" width="80" height="20" as="geometry" />
        </mxCell>
        <mxCell id="bqHvNz_Pqj1NmZ8sPgHQ-16" value="TransformerBlock" style="text;strokeColor=none;align=center;fillColor=none;html=1;verticalAlign=middle;whiteSpace=wrap;rounded=0;" vertex="1" parent="1">
          <mxGeometry x="20" y="990" width="60" height="30" as="geometry" />
        </mxCell>
        <mxCell id="bqHvNz_Pqj1NmZ8sPgHQ-17" value="" style="rounded=1;whiteSpace=wrap;html=1;fillColor=none;" vertex="1" parent="1">
          <mxGeometry x="435" y="50" width="190" height="410" as="geometry" />
        </mxCell>
        <mxCell id="bqHvNz_Pqj1NmZ8sPgHQ-18" value="attention" style="text;strokeColor=none;align=center;fillColor=none;html=1;verticalAlign=middle;whiteSpace=wrap;rounded=0;" vertex="1" parent="1">
          <mxGeometry x="660" y="210" width="60" height="30" as="geometry" />
        </mxCell>
        <mxCell id="bqHvNz_Pqj1NmZ8sPgHQ-19" value="x" style="edgeStyle=none;orthogonalLoop=1;jettySize=auto;html=1;rounded=0;" edge="1" parent="1">
          <mxGeometry x="-1" y="-10" width="80" relative="1" as="geometry">
            <mxPoint x="559.9" y="480" as="sourcePoint" />
            <mxPoint x="559.67" y="430" as="targetPoint" />
            <Array as="points" />
            <mxPoint x="-10" y="10" as="offset" />
          </mxGeometry>
        </mxCell>
        <mxCell id="bqHvNz_Pqj1NmZ8sPgHQ-20" value="freqs_cis" style="edgeStyle=none;orthogonalLoop=1;jettySize=auto;html=1;rounded=0;" edge="1" parent="1">
          <mxGeometry x="-1" y="-10" width="80" relative="1" as="geometry">
            <mxPoint x="520" y="480" as="sourcePoint" />
            <mxPoint x="520" y="350" as="targetPoint" />
            <Array as="points" />
            <mxPoint x="-10" y="10" as="offset" />
          </mxGeometry>
        </mxCell>
        <mxCell id="bqHvNz_Pqj1NmZ8sPgHQ-21" value="mask" style="edgeStyle=none;orthogonalLoop=1;jettySize=auto;html=1;rounded=0;" edge="1" parent="1">
          <mxGeometry x="-1" y="-10" width="80" relative="1" as="geometry">
            <mxPoint x="480" y="480" as="sourcePoint" />
            <mxPoint x="520" y="200" as="targetPoint" />
            <Array as="points">
              <mxPoint x="480" y="340" />
              <mxPoint x="480" y="200" />
            </Array>
            <mxPoint x="-10" y="10" as="offset" />
          </mxGeometry>
        </mxCell>
        <mxCell id="bqHvNz_Pqj1NmZ8sPgHQ-23" value="linear" style="rounded=1;whiteSpace=wrap;html=1;fillColor=none;" vertex="1" parent="1">
          <mxGeometry x="540" y="410" width="40" height="20" as="geometry" />
        </mxCell>
        <mxCell id="bqHvNz_Pqj1NmZ8sPgHQ-28" value="q, k" style="edgeStyle=none;orthogonalLoop=1;jettySize=auto;html=1;rounded=0;entryX=0.83;entryY=0.983;entryDx=0;entryDy=0;entryPerimeter=0;" edge="1" parent="1" target="bqHvNz_Pqj1NmZ8sPgHQ-30">
          <mxGeometry x="0.0002" width="80" relative="1" as="geometry">
            <mxPoint x="550" y="410" as="sourcePoint" />
            <mxPoint x="550.28" y="390" as="targetPoint" />
            <Array as="points" />
            <mxPoint as="offset" />
          </mxGeometry>
        </mxCell>
        <mxCell id="bqHvNz_Pqj1NmZ8sPgHQ-29" value="v" style="edgeStyle=none;orthogonalLoop=1;jettySize=auto;html=1;rounded=0;" edge="1" parent="1">
          <mxGeometry x="-0.1667" width="80" relative="1" as="geometry">
            <mxPoint x="570" y="410" as="sourcePoint" />
            <mxPoint x="570" y="290" as="targetPoint" />
            <Array as="points" />
            <mxPoint as="offset" />
          </mxGeometry>
        </mxCell>
        <mxCell id="bqHvNz_Pqj1NmZ8sPgHQ-39" value="q" style="edgeStyle=orthogonalEdgeStyle;rounded=0;orthogonalLoop=1;jettySize=auto;html=1;exitX=0.25;exitY=0;exitDx=0;exitDy=0;entryX=0.184;entryY=1.001;entryDx=0;entryDy=0;entryPerimeter=0;" edge="1" parent="1" target="bqHvNz_Pqj1NmZ8sPgHQ-41">
          <mxGeometry relative="1" as="geometry">
            <mxPoint x="520" y="250" as="targetPoint" />
            <mxPoint x="520" y="330" as="sourcePoint" />
          </mxGeometry>
        </mxCell>
        <mxCell id="bqHvNz_Pqj1NmZ8sPgHQ-30" value="rotaryEmb" style="rounded=1;whiteSpace=wrap;html=1;fillColor=none;" vertex="1" parent="1">
          <mxGeometry x="500" y="330" width="60" height="20" as="geometry" />
        </mxCell>
        <mxCell id="bqHvNz_Pqj1NmZ8sPgHQ-36" value="k" style="edgeStyle=none;orthogonalLoop=1;jettySize=auto;html=1;rounded=0;" edge="1" parent="1">
          <mxGeometry width="80" relative="1" as="geometry">
            <mxPoint x="550" y="330" as="sourcePoint" />
            <mxPoint x="550" y="290" as="targetPoint" />
            <Array as="points" />
            <mxPoint as="offset" />
          </mxGeometry>
        </mxCell>
        <mxCell id="bqHvNz_Pqj1NmZ8sPgHQ-40" value="k" style="edgeStyle=orthogonalEdgeStyle;rounded=0;orthogonalLoop=1;jettySize=auto;html=1;exitX=0.25;exitY=0;exitDx=0;exitDy=0;entryX=0.605;entryY=1.018;entryDx=0;entryDy=0;entryPerimeter=0;" edge="1" parent="1" source="bqHvNz_Pqj1NmZ8sPgHQ-37" target="bqHvNz_Pqj1NmZ8sPgHQ-41">
          <mxGeometry relative="1" as="geometry">
            <mxPoint x="545.2857142857142" y="250" as="targetPoint" />
          </mxGeometry>
        </mxCell>
        <mxCell id="bqHvNz_Pqj1NmZ8sPgHQ-37" value="kvCache" style="rounded=1;whiteSpace=wrap;html=1;fillColor=none;" vertex="1" parent="1">
          <mxGeometry x="530" y="270" width="60" height="20" as="geometry" />
        </mxCell>
        <mxCell id="bqHvNz_Pqj1NmZ8sPgHQ-42" value="score" style="edgeStyle=orthogonalEdgeStyle;rounded=0;orthogonalLoop=1;jettySize=auto;html=1;exitX=0.5;exitY=0;exitDx=0;exitDy=0;" edge="1" parent="1" source="bqHvNz_Pqj1NmZ8sPgHQ-41">
          <mxGeometry relative="1" as="geometry">
            <mxPoint x="540" y="170" as="targetPoint" />
          </mxGeometry>
        </mxCell>
        <mxCell id="bqHvNz_Pqj1NmZ8sPgHQ-41" value="matmul" style="rounded=1;whiteSpace=wrap;html=1;fillColor=none;" vertex="1" parent="1">
          <mxGeometry x="510" y="220" width="60" height="20" as="geometry" />
        </mxCell>
        <mxCell id="bqHvNz_Pqj1NmZ8sPgHQ-45" style="edgeStyle=orthogonalEdgeStyle;rounded=0;orthogonalLoop=1;jettySize=auto;html=1;exitX=0.5;exitY=0;exitDx=0;exitDy=0;" edge="1" parent="1" source="bqHvNz_Pqj1NmZ8sPgHQ-43">
          <mxGeometry relative="1" as="geometry">
            <mxPoint x="540" y="120" as="targetPoint" />
          </mxGeometry>
        </mxCell>
        <mxCell id="bqHvNz_Pqj1NmZ8sPgHQ-43" value="softmax" style="rounded=1;whiteSpace=wrap;html=1;fillColor=none;" vertex="1" parent="1">
          <mxGeometry x="510" y="150" width="60" height="20" as="geometry" />
        </mxCell>
        <mxCell id="bqHvNz_Pqj1NmZ8sPgHQ-44" value="v" style="edgeStyle=none;orthogonalLoop=1;jettySize=auto;html=1;rounded=0;" edge="1" parent="1">
          <mxGeometry x="-0.1667" width="80" relative="1" as="geometry">
            <mxPoint x="580" y="270" as="sourcePoint" />
            <mxPoint x="580" y="120" as="targetPoint" />
            <Array as="points" />
            <mxPoint as="offset" />
          </mxGeometry>
        </mxCell>
        <mxCell id="bqHvNz_Pqj1NmZ8sPgHQ-47" style="edgeStyle=orthogonalEdgeStyle;rounded=0;orthogonalLoop=1;jettySize=auto;html=1;exitX=0.5;exitY=0;exitDx=0;exitDy=0;" edge="1" parent="1" source="bqHvNz_Pqj1NmZ8sPgHQ-46">
          <mxGeometry relative="1" as="geometry">
            <mxPoint x="560" y="80" as="targetPoint" />
          </mxGeometry>
        </mxCell>
        <mxCell id="bqHvNz_Pqj1NmZ8sPgHQ-46" value="matmul" style="rounded=1;whiteSpace=wrap;html=1;fillColor=none;" vertex="1" parent="1">
          <mxGeometry x="530" y="100" width="60" height="20" as="geometry" />
        </mxCell>
        <mxCell id="bqHvNz_Pqj1NmZ8sPgHQ-50" value="Linear" style="rounded=1;whiteSpace=wrap;html=1;fillColor=none;" vertex="1" parent="1">
          <mxGeometry x="530" y="60" width="60" height="20" as="geometry" />
        </mxCell>
        <mxCell id="bqHvNz_Pqj1NmZ8sPgHQ-56" value="output" style="edgeStyle=none;orthogonalLoop=1;jettySize=auto;html=1;rounded=0;" edge="1" parent="1">
          <mxGeometry x="1" y="10" width="80" relative="1" as="geometry">
            <mxPoint x="559.72" y="60" as="sourcePoint" />
            <mxPoint x="559.72" y="40" as="targetPoint" />
            <Array as="points" />
            <mxPoint x="10" y="-10" as="offset" />
          </mxGeometry>
        </mxCell>
      </root>
    </mxGraphModel>
  </diagram>
</mxfile>
